<svg xmlns="http://www.w3.org/2000/svg" height="800" width="1200" viewBox="-36.554355 -10.13215 316.80441 60.7929"><g fill="#006680"><path d="M32.0998 1.2418l-5.2696 24.0333-8.9584-24.0333h-9.492L0 39.1993h9.7967l5.1143-23.813 8.8428 23.813h9.4636L41.586 1.2418zm77.2977.0991H97.6278L88.229 19.5966l10.4403.1617 10.7282-18.4175zM77.5348 39.2712h9.791l7.2255-12.3885-18.4842.6163zm6.0857-37.9303H72.74l2.2975 18.0044 9.7233.1652zm38.0261 0H111.133l-4.1123 18.5759 10.5136.186zm-18.8478 37.9303h10.491l2.9044-13.1288-10.5898.3788zm35.2037-13.4311c.81.4614 1.1685 1.2464 1.129 2.3551-.0595 1.2258-.5053 2.1624-1.3887 2.8372-.827.6749-2.0322 1.0605-3.5563 1.0915-.8693.038-1.7076-.031-2.5684-.2548-.858-.162-1.5919-.5819-2.2326-1.2223-.4855-.5578-.827-1.1741-.9427-1.7939-.1381-.6336-.1863-1.2258-.1381-1.7044l-9.4467-.093c-.0986 1.2981.127 3.302.3358 4.7895.2032 1.5012.7988 2.9267 1.829 4.3177.4318.5647 1.1261 1.1879 2.0801 1.8559.9964.6748 2.2439 1.2429 3.864 1.7422 1.5918.4786 3.5619.7127 5.8989.7678 1.8459 0 3.576-.1895 5.2356-.5337 1.606-.3339 3.133-.9709 4.6035-1.8524 1.6483-1.0846 2.9607-2.3241 3.9203-3.7048.8976-1.3635 1.5496-2.7064 1.9165-4.0526.4149-1.3188.5955-2.4722.6181-3.4329.0226-.6507 0-1.2498-.048-1.8731l-11.7442.3822.635.3788m7.9104-6.8681c-1.115-.723-2.3935-1.3738-3.847-1.9557l-5.9103-2.2553c-.8044-.2858-1.5495-.6817-2.2664-1.2223-.7536-.5165-1.1234-1.2327-1.1234-2.1692.037-.7334.4065-1.4324 1.1516-2.0246.7339-.5888 1.8685-.909 3.418-.9193 1.6878 0 2.9495.3305 3.816.9744.841.668 1.1882 1.5942 1.0245 2.7924l9.4468-.038c.0565-.9159-.209-2.8578-.336-4.0009-.1099-1.1466-.5164-2.2966-1.1853-3.4329-.6718-1.1603-1.812-2.1623-3.4237-3.0644-1.1826-.6473-2.4527-1.0674-3.7538-1.305C141.603.1204 140.285 0 138.9387 0c-2.495.045-4.5527.2617-6.1728.6336-1.6426.4235-2.9663.9778-4.0586 1.6424-1.6653 1.0192-3.0088 2.3895-4.022 4.1421-1.0048 1.7457-1.5665 3.8013-1.6822 6.1288-.062 1.1604.0705 2.3862.4234 3.6773.364 1.2809.9003 2.3173 1.6144 3.0748.3048.3512.6576.6749.9822.9641l21.5946.42c-.4855-.723-1.05-1.2843-1.7048-1.7112m27.0835-9.1945h8.3403l1.9362-8.5356h-28.3628l-1.8685 8.5356h9.1504l-2.4922 11.1145 10.7507.1791zm-17.4419 29.4219h10.793l3.3474-14.7988-10.8664.334zm77.408-24.4066c-.2964.6404-.7056 1.1466-1.1403 1.5012-.3415.2927-.8552.5062-1.5326.637-.683.1309-1.6878.1895-2.9833.2237-1.3237 0-3.099 0-5.3034-.045l1.6257-7.4648h7.0788c.7733-.025 1.445.1928 2.0067.6921.542.4786.827 1.3084.8214 2.5858-.0594.6163-.254 1.2292-.573 1.8696m6.963-11.9374c-1.1629-.6818-2.3003-1.1225-3.4942-1.305-1.1798-.2135-2.1902-.3305-3.0398-.3615h-17.948l-8.1766 37.9471h9.9632l2.8338-13.2665h6.2771l3.2035 13.2665h10.1806l-3.9966-14.9709c1.191-.5233 2.3821-1.2361 3.5337-2.1072 1.1375-.8952 2.1959-2.3276 3.0878-4.2867.4318-1.0054.7451-1.9764.9653-2.9302.2201-.9847.3076-1.8627.3697-2.6891.076-2.572-.254-4.5966-.9822-6.0703-.7226-1.4806-1.637-2.5514-2.7773-3.2262M61.1676 39.1352h10.8608L70.572 27.6695l-10.0987.3408zM191.392 1.1963l-11.3293 20.0461 10.1495.1962 3.291-6.5111 1.4507 24.2089h10.5334l-4.6288-37.9402h-9.4665z"/><path d="M169.9645 39.1352h11.3886l7.7081-15.3944-10.618.365zM67.215 1.1963h-9.7685L35.3806 39.1366h11.781l12.4639-24.2089.2512 4.1249 9.6104.1617-2.272-18.0181z"/></g></svg>