<svg xmlns="http://www.w3.org/2000/svg" height="800" width="1200" viewBox="-37.065 -22.7 321.23 136.2"><path d="M7.2 26.9V64l17.1 9.9V42.5l30.1 30.1.8.8L71.5 64V26.9L54.4 17v31.4L24.3 18.3l-.8-.8zM39.4 0L0 22.7v45.4l39.4 22.7 39.4-22.7V22.7zm37.2 66.9L39.4 88.4 2.2 66.9V24L39.4 2.5 76.6 24z" fill="#00adee"/><path d="M234.5 25.1h-4.7l-12.6 23h5.1l9.9-18.5 9.8 18.5h5.1zm-40.8 23v-23h4.5v18.4h17.3V48h-21.8zm-23.2 0c-1.4 0-2.6-.1-3.5-.4-.9-.2-1.6-.7-2.2-1.2-.6-.6-.9-1.3-1.2-2.3-.2-1-.3-2.1-.3-3.5v-8.1c0-1.4.1-2.6.3-3.5.2-.9.6-1.7 1.2-2.3.6-.6 1.3-1 2.2-1.2.9-.2 2.1-.4 3.5-.4h12.1c1.4 0 2.5.1 3.4.4.9.2 1.7.7 2.2 1.2.6.6 1 1.3 1.2 2.3.2 1 .3 2.1.3 3.5v8.1c0 1.4-.1 2.6-.3 3.5-.2 1-.6 1.7-1.2 2.3-.6.6-1.3 1-2.2 1.2-.9.2-2.1.4-3.4.4zm14.8-15.5c0-1.1-.2-1.9-.6-2.3-.4-.4-1.1-.6-2.1-.6h-12.1c-1 0-1.7.2-2.1.6-.4.4-.6 1.2-.6 2.3v8.1c0 1.1.2 1.9.6 2.3.4.4 1.1.6 2.1.6h12.1c1 0 1.7-.2 2.1-.6.4-.4.6-1.2.6-2.3zM156 48.1l-9.1-9-6.9 6.2v2.8h-4.5v-23h4.5v14.5l16-14.5h6.5l-12.4 11.2 12.4 11.8zm-29.1 0v-23h4.5v23zm-8.5 0l-16.2-16.9v16.9h-4.3v-23h4.8l15.8 16.6V25.1h4.3v23z" fill="#332d2e"/><path d="M242.7 60.8l-3.6-7.1h.9l1.8 3.7c.4.9.8 1.7 1.3 2.6h.1c.5-.9.9-1.7 1.3-2.6l1.8-3.7h.8l-3.6 7.1v4.8h-.8zm-15.1-7.1h.9l5 8.4 1.4 2.4h.1c-.1-1.2-.1-2.3-.1-3.5v-7.3h.8v11.9h-.9l-5-8.4-1.4-2.4h-.1c.1 1.1.1 2.2.1 3.4v7.4h-.8zm-7.7 0h-.8l-4.2 11.9h.8l2.4-7c.5-1.4.9-2.7 1.3-4.1h.1c.4 1.5.8 2.7 1.3 4.1l2.4 7h.9zm-14.3 0h3.2c2.7 0 4.2.9 4.2 3.3 0 2.3-1.6 3.5-4.2 3.5h-2.4v5.1h-.8zm3.1 6.1c2.4 0 3.6-.8 3.6-2.8 0-2-1.2-2.6-3.6-2.6h-2.2v5.4zm-17.4-6.1h1.2l2.5 7 .9 2.6h.1l.9-2.6 2.5-7h1.2v11.9h-.8v-7.8c0-1 .1-2.2.1-3.2h-.1l-.9 2.6-2.6 7.1h-.7l-2.6-7.1-.9-2.6h-.1c0 1 .1 2.2.1 3.2v7.8h-.8zm-14.2 5.9c0-3.8 2-6.1 4.9-6.1 2.9 0 4.9 2.4 4.9 6.1 0 3.8-2 6.2-4.9 6.2-2.9 0-4.9-2.4-4.9-6.2zm8.9 0c0-3.3-1.6-5.4-4-5.4s-4 2.1-4 5.4c0 3.3 1.6 5.4 4 5.4s4-2.1 4-5.4zm-15.2-6.1c1.4 0 2.5.7 3.1 1.4l-.5.5c-.6-.7-1.5-1.2-2.6-1.2-2.6 0-4.2 2.1-4.2 5.4 0 3.3 1.6 5.4 4.2 5.4 1.2 0 2.1-.5 3-1.5l.5.5c-.9 1-2 1.7-3.5 1.7-2.9 0-5-2.4-5-6.2-.1-3.7 1.9-6 5-6zm-14.9 12.1l-3.2-5.5h-2.5v5.5h-.8V53.7h3.4c2.4 0 3.9.9 3.9 3.1 0 1.9-1.2 3-3 3.2l3.3 5.5h-1.1zm-3.4-6.2c2.1 0 3.3-.8 3.3-2.6s-1.2-2.4-3.3-2.4h-2.3v5zm-17.3.2c0-3.8 2-6.1 4.9-6.1 2.9 0 4.9 2.4 4.9 6.1 0 3.8-2 6.2-4.9 6.2-2.9 0-4.9-2.4-4.9-6.2zm8.9 0c0-3.3-1.6-5.4-4-5.4s-4 2.1-4 5.4c0 3.3 1.6 5.4 4 5.4s4-2.1 4-5.4zm-16.3-5.2H124v-.7h8.4v.7h-3.8v11.2h-.8zm-16.4 5.2c0-3.8 2-6.1 4.9-6.1 2.9 0 4.9 2.4 4.9 6.1 0 3.8-2 6.2-4.9 6.2-2.9 0-4.9-2.4-4.9-6.2zm8.9 0c0-3.3-1.6-5.4-4-5.4s-4 2.1-4 5.4c0 3.3 1.6 5.4 4 5.4s4-2.1 4-5.4zm-22.4-5.9h1.2l2.5 7 .9 2.6h.1l.9-2.6 2.5-7h1.2v11.9h-.8v-7.8c0-1 .1-2.2.1-3.2h-.1l-.9 2.6-2.6 7.1h-.8l-2.6-7.1-.9-2.6h-.1c0 1 .1 2.2.1 3.2v7.8h-.8V53.7z" fill="#00adee"/><path d="M245.1 28.1l-1.3-1.9v2.9h-.7v-4h.7L245 27l1.2-1.9h.7v4h-.7v-2.9zm-3.9 1h-.7v-3.3h-1.3v-.6h3.2v.6h-1.3v3.3z" fill="#332d2e"/></svg>