<svg xmlns="http://www.w3.org/2000/svg" height="800" width="1200" viewBox="-60.2745 -12.3182 522.379 73.9092"><path d="M88.1863 48.915L95.8146.3754h22.584l-7.0192 48.5396H88.1863m43.6487 0c2.047-4.1931 3.3537-6.6402 5.1776-9.9941 6.0949 3.6585 13.8118 7.5505 20.5229 4.193 3.0563-1.5227 5.1174-5.4183 4.193-9.0765-.6055-2.1286-2.4258-3.6586-4.2674-4.2748-6.7146-2.1353-16.1633-1.5228-18.6175-9.1545-2.4472-7.926 2.7517-16.5779 9.7815-20.2327h37.2174c-1.5335 3.0457-2.7482 5.7443-4.735 8.9424-3.9416-2.4615-11.9914-4.7493-17.162-2.7448-3.3537 1.5265-5.1882 5.1105-3.9593 8.7757.9101 2.1357 2.0399 3.4319 4.1895 4.3527 6.4101 1.8238 15.5542 1.445 18.993 6.7784 4.8872 7.6176-.379 18.1678-7.7063 22.4352H131.835m69.9158 0c2.2807-15.6746 4.7987-32.5568 7.0936-48.1925h21.355c-.609 2.4365-1.2111 5.8258-1.9017 8.11h8.5456c1.5972-2.5887 3.1235-5.978 5.5636-8.11h23.5048c1.5193 2.741 2.2772 5.546 3.0421 8.8961h6.109c2.125-3.8743 3.453-6.2505 6.102-8.8961h25.3287c2.1355 3.6618 3.4388 8.3544 2.943 12.3067-1.5194 12.4094-3.7009 23.9864-5.5354 35.8858h-22.1307c1.8451-10.2491 2.4153-16.6237 3.7646-27.0286.6162-4.6853-3.3502-8.0746-6.9165-8.3509-3.97-.3045-8.7439 2.2382-9.7674 8.135-1.707 9.8737-2.9394 17.4808-4.7845 27.2445h-22.2653c1.2254-8.2338 3.0528-22.8426 3.6584-27.117.5064-3.4814-2.1214-7.7489-6.7784-8.0817-6.4207-.4604-9.1016 4.3773-9.693 7.6459-1.8947 10.3908-3.2192 17.6403-4.8873 27.5528h-22.3502M34.1752 7.4408c4.1188-4.3206 5.1564-5.3513 7.7063-7.0654h25.8598c2.8439 4.7739 2.936 8.195 2.341 13.323-1.6185 14.028-2.4437 21.8723-4.4552 35.2166H42.0019c1.328-9.9125 2.3161-15.6922 3.3573-26.1716.2797-2.7516-1.0093-8.9387-7.3663-9.307-7.1714-.3967-10.3694 5.638-10.929 9.2115-1.4307 9.052-2.355 17.4205-3.8708 26.267H0L7.0192.3755h21.3657c-.308 2.4365-1.4272 7.0654-1.4272 7.0654h7.2175" fill="#231f20"/><path d="M201.7508 48.915c2.2807-15.6746 4.7987-32.5568 7.0936-48.1925h21.355c-.609 2.4365-1.2111 5.8258-1.9017 8.11h8.5456c1.5972-2.5887 3.1235-5.978 5.5636-8.11h23.5048c1.5193 2.741 2.2772 5.546 3.0421 8.8961h6.109c2.125-3.8743 3.453-6.2505 6.102-8.8961h25.3287c2.1355 3.6618 3.4388 8.3544 2.943 12.3067-1.5194 12.4094-3.7009 23.9864-5.5354 35.8858h-22.1307c1.8451-10.2491 2.4153-16.6237 3.7646-27.0286.6162-4.6853-3.3502-8.0746-6.9165-8.3509-3.97-.3045-8.7439 2.2382-9.7674 8.135-1.707 9.8737-2.9394 17.4808-4.7845 27.2445h-22.2653c1.2254-8.2338 3.0528-22.8426 3.6584-27.117.5064-3.4814-2.1214-7.7489-6.7784-8.0817-6.4207-.4604-9.1016 4.3773-9.693 7.6459-1.8947 10.3908-3.2192 17.6403-4.8873 27.5528h-22.3502" fill="#231f20"/><path d="M353.7474 34.6677l2.5357-19.124c.5595-3.5698 3.7681-9.6153 10.936-9.2186 6.357.3612 7.6567 6.5625 7.3876 9.314l-2.5393 19.1206c-.5595 3.5698-3.7575 9.6045-10.9254 9.208-6.357-.3543-7.6638-6.5519-7.3946-9.3zm37.4298 14.5908c6.6616-8.6058 10.6528-19.1135 10.6528-30.5312 0-6.5163-1.8345-12.7068-4.1825-18.7273h-60.3184c-6.658 8.6165-11.1733 19.1098-11.1733 30.5312 0 6.5126 1.3138 12.7244 3.6548 18.7415h61.3666" fill="#c51733"/></svg>